<svg id="wave" style="transform:rotate(0deg); transition: 0.3s" viewBox="0 0 1440 490" version="1.1" xmlns="http://www.w3.org/2000/svg"><defs><linearGradient id="sw-gradient-0" x1="0" x2="0" y1="1" y2="0"><stop stop-color="rgba(0, 21, 41, 1)" offset="0%"></stop><stop stop-color="rgba(22, 119, 255, 1)" offset="100%"></stop></linearGradient></defs><path style="transform:translate(0, 0px); opacity:1" fill="url(#sw-gradient-0)" d="M0,441L26.7,408.3C53.3,376,107,310,160,302.2C213.3,294,267,343,320,310.3C373.3,278,427,163,480,130.7C533.3,98,587,147,640,179.7C693.3,212,747,229,800,245C853.3,261,907,278,960,261.3C1013.3,245,1067,196,1120,204.2C1173.3,212,1227,278,1280,310.3C1333.3,343,1387,343,1440,310.3C1493.3,278,1547,212,1600,171.5C1653.3,131,1707,114,1760,138.8C1813.3,163,1867,229,1920,212.3C1973.3,196,2027,98,2080,65.3C2133.3,33,2187,65,2240,122.5C2293.3,180,2347,261,2400,277.7C2453.3,294,2507,245,2560,196C2613.3,147,2667,98,2720,81.7C2773.3,65,2827,82,2880,89.8C2933.3,98,2987,98,3040,106.2C3093.3,114,3147,131,3200,138.8C3253.3,147,3307,147,3360,163.3C3413.3,180,3467,212,3520,220.5C3573.3,229,3627,212,3680,171.5C3733.3,131,3787,65,3813,32.7L3840,0L3840,490L3813.3,490C3786.7,490,3733,490,3680,490C3626.7,490,3573,490,3520,490C3466.7,490,3413,490,3360,490C3306.7,490,3253,490,3200,490C3146.7,490,3093,490,3040,490C2986.7,490,2933,490,2880,490C2826.7,490,2773,490,2720,490C2666.7,490,2613,490,2560,490C2506.7,490,2453,490,2400,490C2346.7,490,2293,490,2240,490C2186.7,490,2133,490,2080,490C2026.7,490,1973,490,1920,490C1866.7,490,1813,490,1760,490C1706.7,490,1653,490,1600,490C1546.7,490,1493,490,1440,490C1386.7,490,1333,490,1280,490C1226.7,490,1173,490,1120,490C1066.7,490,1013,490,960,490C906.7,490,853,490,800,490C746.7,490,693,490,640,490C586.7,490,533,490,480,490C426.7,490,373,490,320,490C266.7,490,213,490,160,490C106.7,490,53,490,27,490L0,490Z"></path></svg>